<svg width="40" height="41" viewBox="0 0 40 41" fill="none" xmlns="http://www.w3.org/2000/svg">
<path opacity="0.2" d="M25.91 40.6292H13.78C10.1253 40.6292 6.62026 39.1774 4.03601 36.5931C1.45176 34.0089 0 30.5041 0 26.8495V14.7196C-4.77062e-07 12.9104 0.356501 11.1189 1.04913 9.4476C1.74177 7.77629 2.7569 6.25764 4.03662 4.97885C5.31634 3.70006 6.83552 2.68638 8.50732 1.99496C10.1791 1.30354 11.9708 0.94824 13.78 0.949554H25.91C27.722 0.942969 29.5175 1.29406 31.1934 1.98325C32.8692 2.67243 34.3925 3.68622 35.6757 4.96567C36.9588 6.24512 37.9766 7.76495 38.6707 9.43881C39.3647 11.1127 39.7213 12.9075 39.72 14.7196V26.8495C39.7213 28.6586 39.3661 30.4501 38.6747 32.1219C37.9833 33.7937 36.9692 35.3129 35.6904 36.5926C34.4116 37.8723 32.8932 38.8878 31.2219 39.5804C29.5506 40.273 27.7591 40.6292 25.95 40.6292" fill="url(#paint0_linear_9_1979)"/>
<path d="M23.5195 11.3391V17.6794H29.8596" stroke="#F6CF91" stroke-width="0.68" stroke-linecap="round" stroke-linejoin="round"/>
<path d="M30.8395 10.3694L23.5195 17.6794" stroke="#F6CF91" stroke-width="0.68" stroke-linecap="round" stroke-linejoin="round"/>
<path d="M9.82031 17.6794H16.1703V11.3391" stroke="#F6CF91" stroke-width="0.68" stroke-linecap="round" stroke-linejoin="round"/>
<path d="M8.84961 10.3694L16.1696 17.6794" stroke="#F6CF91" stroke-width="0.68" stroke-linecap="round" stroke-linejoin="round"/>
<path d="M16.1703 30.2395V23.8894H9.82031" stroke="#F6CF91" stroke-width="0.68" stroke-linecap="round" stroke-linejoin="round"/>
<path d="M8.84961 31.2092L16.1696 23.8894" stroke="#F6CF91" stroke-width="0.68" stroke-linecap="round" stroke-linejoin="round"/>
<path d="M29.8596 23.8894H23.5195V30.2395" stroke="#F6CF91" stroke-width="0.68" stroke-linecap="round" stroke-linejoin="round"/>
<path d="M30.8395 31.2092L23.5195 23.8894" stroke="#F6CF91" stroke-width="0.68" stroke-linecap="round" stroke-linejoin="round"/>
<path d="M18.0795 22.5594C18.3054 22.7928 18.5758 22.9787 18.8746 23.1058C19.1735 23.2329 19.4948 23.2988 19.8195 23.2996C20.4818 23.2997 21.1172 23.0375 21.5873 22.5711C22.0575 22.1047 22.3243 21.4716 22.3295 20.8094C22.3331 20.4813 22.2713 20.1558 22.1476 19.8519C22.024 19.548 21.8411 19.2718 21.6096 19.0394C21.3814 18.8036 21.1077 18.6163 20.8052 18.4891C20.5028 18.3619 20.1777 18.2978 19.8496 18.2996C19.3544 18.2959 18.8693 18.4399 18.4564 18.7132C18.0434 18.9865 17.7214 19.3765 17.5314 19.8338C17.3414 20.2911 17.2921 20.7946 17.3897 21.2801C17.4874 21.7656 17.7275 22.2111 18.0795 22.5594ZM18.5895 19.5594C18.9257 19.2285 19.3778 19.0419 19.8496 19.0394C20.3174 19.0523 20.7621 19.2462 21.0903 19.5799C21.4184 19.9137 21.6046 20.3614 21.6096 20.8294C21.6011 21.3068 21.4075 21.7622 21.0695 22.0994C20.736 22.427 20.287 22.6099 19.8195 22.6092C19.4676 22.6058 19.1245 22.4984 18.8337 22.3001C18.543 22.1018 18.3175 21.8219 18.1859 21.4954C18.0542 21.169 18.0223 20.8107 18.0941 20.4661C18.166 20.1216 18.3384 19.806 18.5895 19.5594Z" fill="#58595B" stroke="#F6CF91" stroke-width="1.4" stroke-miterlimit="10"/>
<path d="M19.8296 21.1395C19.8812 21.1482 19.9341 21.1455 19.9846 21.1317C20.0351 21.1179 20.0819 21.0932 20.1218 21.0594C20.1618 21.0256 20.1939 20.9834 20.216 20.9359C20.238 20.8884 20.2494 20.8369 20.2494 20.7845C20.2494 20.7322 20.238 20.6802 20.216 20.6327C20.1939 20.5852 20.1618 20.5434 20.1218 20.5096C20.0819 20.4758 20.0351 20.4512 19.9846 20.4374C19.9341 20.4235 19.8812 20.4209 19.8296 20.4296C19.7376 20.4321 19.65 20.4694 19.5849 20.5345C19.5198 20.5996 19.4822 20.6876 19.4796 20.7797C19.4783 20.8265 19.4863 20.8728 19.5033 20.9164C19.5203 20.96 19.5459 21 19.5785 21.0336C19.6111 21.0671 19.6502 21.0935 19.6933 21.1117C19.7364 21.1299 19.7828 21.1395 19.8296 21.1395Z" fill="#58595B" stroke="#F6CF91" stroke-width="1.4" stroke-miterlimit="10"/>
<defs>
<linearGradient id="paint0_linear_9_1979" x1="0" y1="20.7894" x2="39.68" y2="20.7894" gradientUnits="userSpaceOnUse">
<stop stop-color="white"/>
<stop offset="1" stop-color="#AEB1B5" stop-opacity="0.8"/>
</linearGradient>
</defs>
</svg>
