<svg width="40" height="41" viewBox="0 0 40 41" fill="none" xmlns="http://www.w3.org/2000/svg">
<path opacity="0.2" d="M25.9149 40.6297H13.7849C11.9757 40.631 10.184 40.2757 8.51221 39.5843C6.8404 38.8929 5.32123 37.8787 4.0415 36.5999C2.76178 35.3211 1.74665 33.8025 1.05402 32.1312C0.361384 30.4599 0.00488234 28.6688 0.00488281 26.8597V14.7293C0.00488281 11.0746 1.45664 7.56991 4.04089 4.98565C6.62514 2.4014 10.1302 0.949521 13.7849 0.949521H25.9149C27.7274 0.944255 29.523 1.29684 31.199 1.98712C32.8749 2.67739 34.3981 3.69174 35.6812 4.97198C36.9642 6.25223 37.9818 7.77315 38.6757 9.44757C39.3696 11.122 39.7262 12.9168 39.7249 14.7293V26.8597C39.7262 28.6683 39.3709 30.4594 38.6794 32.1307C37.9878 33.8019 36.9736 35.3205 35.6946 36.5994C34.4157 37.8783 32.8972 38.8923 31.226 39.5838C29.5547 40.2753 27.7635 40.631 25.9548 40.6297" fill="url(#paint0_linear_9_2004)"/>
<path d="M18.7244 12.7195V15.4094C18.7237 15.5276 18.6931 15.6437 18.6354 15.7468C18.5777 15.85 18.4948 15.9368 18.3944 15.9993C18.2907 16.058 18.1736 16.0891 18.0544 16.0891C17.9353 16.0891 17.8181 16.058 17.7144 15.9993C17.6127 15.9382 17.5288 15.8518 17.4709 15.7483C17.413 15.6448 17.3832 15.528 17.3844 15.4094V12.7195C17.3829 12.6022 17.4127 12.4865 17.4707 12.3845C17.5287 12.2826 17.6128 12.198 17.7144 12.1394C17.8181 12.0807 17.9353 12.05 18.0544 12.05C18.1736 12.05 18.2907 12.0807 18.3944 12.1394C18.4946 12.1996 18.5776 12.2844 18.6354 12.386C18.6932 12.4876 18.7239 12.6026 18.7244 12.7195ZM21.4144 18.0994C21.5926 18.0985 21.7639 18.0307 21.8944 17.9094L24.2545 15.5393C24.3289 15.4546 24.38 15.3519 24.4028 15.2415C24.4256 15.131 24.4192 15.0167 24.3844 14.9094C24.3552 14.8017 24.2982 14.7032 24.2193 14.6243C24.1404 14.5453 24.0422 14.4885 23.9344 14.4592C23.8272 14.4244 23.7127 14.4184 23.6022 14.4412C23.4918 14.464 23.3892 14.5151 23.3044 14.5896L20.9344 16.9495C20.8654 17.0131 20.8102 17.0905 20.7725 17.1765C20.7347 17.2626 20.7153 17.3555 20.7153 17.4495C20.7153 17.5434 20.7347 17.6364 20.7725 17.7224C20.8102 17.8085 20.8654 17.8858 20.9344 17.9495C21.0649 18.0708 21.2363 18.1385 21.4144 18.1394V18.0994ZM26.1245 20.0994H22.7644C22.6449 20.0992 22.5274 20.1305 22.4238 20.1902C22.3202 20.2499 22.2342 20.3357 22.1744 20.4392C22.1156 20.5411 22.0847 20.6566 22.0847 20.7742C22.0847 20.8918 22.1156 21.0078 22.1744 21.1096C22.2342 21.2132 22.3202 21.299 22.4238 21.3586C22.5274 21.4183 22.6449 21.4497 22.7644 21.4495H26.1245C26.2893 21.4294 26.4411 21.3497 26.5512 21.2253C26.6613 21.101 26.7221 20.9403 26.7221 20.7742C26.7221 20.6081 26.6613 20.4478 26.5512 20.3235C26.4411 20.1991 26.2893 20.1195 26.1245 20.0994ZM21.8745 23.6394C21.7485 23.5068 21.5749 23.4297 21.3921 23.425C21.2092 23.4204 21.032 23.4885 20.8994 23.6145C20.7668 23.7405 20.6897 23.9141 20.685 24.0969C20.6803 24.2798 20.7485 24.457 20.8745 24.5896L23.2444 26.9495C23.306 27.0133 23.3798 27.0642 23.4614 27.0989C23.543 27.1335 23.6308 27.1511 23.7194 27.1511C23.8081 27.1511 23.8959 27.1335 23.9775 27.0989C24.0591 27.0642 24.1328 27.0133 24.1944 26.9495C24.3154 26.8229 24.383 26.6544 24.383 26.4792C24.383 26.3041 24.3154 26.1361 24.1944 26.0095L21.8745 23.6394ZM18.0544 24.8093C17.9651 24.809 17.8767 24.8267 17.7943 24.8611C17.7118 24.8954 17.637 24.9459 17.5744 25.0095C17.452 25.1353 17.3837 25.3037 17.3844 25.4792V28.8396C17.3832 28.9582 17.413 29.075 17.4709 29.1785C17.5288 29.282 17.6127 29.3684 17.7144 29.4294C17.8181 29.4882 17.9353 29.5188 18.0544 29.5188C18.1736 29.5188 18.2907 29.4882 18.3944 29.4294C18.4948 29.367 18.5777 29.2802 18.6354 29.177C18.6931 29.0738 18.7237 28.9578 18.7244 28.8396V25.4792C18.7218 25.3024 18.6504 25.1336 18.5253 25.0085C18.4002 24.8835 18.2313 24.8119 18.0544 24.8093ZM12.3344 25.5393L11.8745 26.0095C11.7822 26.1032 11.7196 26.2218 11.6943 26.3508C11.6691 26.4798 11.6824 26.6131 11.7325 26.7346C11.7826 26.8561 11.8673 26.9602 11.9761 27.0339C12.0849 27.1077 12.213 27.1477 12.3444 27.1492C12.4337 27.1495 12.5222 27.1322 12.6046 27.0979C12.687 27.0636 12.7618 27.0131 12.8244 26.9495L13.2844 26.4895C13.3589 26.4048 13.41 26.3021 13.4328 26.1917C13.4556 26.0812 13.4493 25.9669 13.4144 25.8596C13.3852 25.7519 13.3283 25.6534 13.2493 25.5745C13.1704 25.4955 13.0722 25.4387 12.9644 25.4094C12.857 25.3756 12.7428 25.3696 12.6325 25.3923C12.5222 25.4151 12.4196 25.4657 12.3344 25.5393ZM12.0045 20.7693C12.0046 20.6815 11.9869 20.5947 11.9525 20.5139C11.9181 20.4331 11.8678 20.3603 11.8044 20.2996C11.7418 20.2359 11.667 20.1855 11.5846 20.1511C11.5022 20.1168 11.4137 20.099 11.3244 20.0994H9.98444C9.81956 20.1195 9.66773 20.1991 9.55762 20.3235C9.44751 20.4478 9.38672 20.6081 9.38672 20.7742C9.38672 20.9403 9.44751 21.101 9.55762 21.2253C9.66773 21.3497 9.81956 21.4294 9.98444 21.4495H11.3244C11.4137 21.4495 11.5022 21.4319 11.5847 21.3977C11.6672 21.3635 11.7421 21.3134 11.8052 21.2502C11.8684 21.1871 11.9185 21.112 11.9526 21.0295C11.9868 20.947 12.0045 20.8586 12.0045 20.7693ZM12.8244 14.5896C12.7392 14.516 12.6366 14.4654 12.5263 14.4426C12.416 14.4199 12.3018 14.4254 12.1944 14.4592C12.0861 14.4896 11.9873 14.5471 11.9069 14.6257C11.8265 14.7044 11.7672 14.8018 11.7344 14.9094C11.7038 15.0178 11.7005 15.132 11.7249 15.2419C11.7494 15.3519 11.8008 15.4541 11.8745 15.5393L13.2844 16.9495C13.4129 17.0764 13.5839 17.1512 13.7644 17.1594C13.9421 17.1517 14.1101 17.0766 14.2344 16.9495C14.3555 16.8229 14.423 16.6544 14.423 16.4792C14.423 16.3041 14.3555 16.1361 14.2344 16.0095L12.8244 14.5896Z" fill="#F6CF91"/>
<defs>
<linearGradient id="paint0_linear_9_2004" x1="0.00488281" y1="20.7896" x2="39.6849" y2="20.7896" gradientUnits="userSpaceOnUse">
<stop stop-color="white"/>
<stop offset="1" stop-color="#AEB1B5" stop-opacity="0.8"/>
</linearGradient>
</defs>
</svg>
