<svg width="41" height="41" viewBox="0 0 41 41" fill="none" xmlns="http://www.w3.org/2000/svg">
<path opacity="0.2" d="M26.3077 40.4419H14.2078C10.5531 40.4419 7.04812 38.99 4.46387 36.4058C1.87962 33.8215 0.427734 30.3168 0.427734 26.6621V14.5322C0.427734 12.7231 0.784296 10.9316 1.47693 9.26026C2.16956 7.58895 3.18476 6.0703 4.46448 4.79151C5.7442 3.51271 7.26337 2.49904 8.93518 1.80762C10.607 1.1162 12.3986 0.760897 14.2078 0.762211H26.3378C28.1464 0.760896 29.9376 1.11608 31.6089 1.80762C33.2801 2.49916 34.7986 3.51356 36.0775 4.79248C37.3564 6.07141 38.3707 7.5895 39.0623 9.26075C39.7538 10.932 40.1091 12.7236 40.1078 14.5322V26.6621C40.1091 28.4713 39.7539 30.2628 39.0625 31.9346C38.3711 33.6064 37.3569 35.1256 36.0781 36.4053C34.7993 37.685 33.2809 38.7004 31.6096 39.3931C29.9383 40.0857 28.1469 40.4419 26.3378 40.4419" fill="url(#paint0_linear_9_2034)"/>
<path d="M18.9981 10.9219H21.4881C21.6138 10.9648 21.7251 11.0422 21.8098 11.1445C21.8946 11.2469 21.9493 11.3704 21.968 11.502C21.9636 11.5619 21.9636 11.6222 21.968 11.6821C22.0007 11.8753 22.0475 12.0656 22.1081 12.252C22.1981 12.662 22.298 13.0719 22.398 13.4819C22.4022 13.5118 22.4149 13.54 22.4344 13.563C22.4538 13.586 22.4794 13.6032 22.5081 13.6123L23.218 13.8721C23.2685 13.9247 23.329 13.9665 23.396 13.9951C23.4631 14.0237 23.5352 14.0386 23.6081 14.0386C23.6809 14.0386 23.7531 14.0237 23.8201 13.9951C23.8871 13.9665 23.9477 13.9247 23.9981 13.8721L25.278 13.1221C25.4006 13.0281 25.5551 12.9857 25.7084 13.0044C25.8617 13.0231 26.0017 13.1015 26.0981 13.2222L26.678 13.792C26.7971 13.9261 26.924 14.0528 27.058 14.1719C27.218 14.3319 27.378 14.5021 27.548 14.6621C27.6183 14.7121 27.6774 14.7764 27.7215 14.8506C27.7655 14.9248 27.7936 15.0071 27.804 15.0928C27.8143 15.1784 27.8068 15.2651 27.7816 15.3477C27.7565 15.4302 27.7143 15.5069 27.658 15.5723C27.378 16.0523 27.088 16.5722 26.798 17.0122C26.748 17.0822 26.6781 17.1522 26.7281 17.2622C26.7781 17.3722 26.868 17.5421 26.948 17.6821C27.028 17.8221 27.098 18.0922 27.168 18.3022C27.1766 18.3306 27.1921 18.356 27.213 18.377C27.234 18.3979 27.2597 18.4133 27.288 18.4219L28.6081 18.7319L29.208 18.8818C29.3463 18.8979 29.4782 18.9484 29.5918 19.0288C29.7054 19.1092 29.797 19.2173 29.8581 19.3423V21.9521C29.7742 22.0772 29.6632 22.1816 29.5334 22.2578C29.4035 22.334 29.2581 22.3799 29.1081 22.3921C29.0401 22.4075 28.9732 22.4276 28.908 22.4521L27.968 22.6719L27.328 22.8223C27.2892 22.8305 27.2531 22.8482 27.2233 22.8745C27.1935 22.9008 27.171 22.9346 27.158 22.9722C27.068 23.2422 26.9581 23.5022 26.8481 23.7622C26.8111 23.7968 26.7816 23.8383 26.7615 23.8848C26.7414 23.9312 26.731 23.9816 26.731 24.0322C26.731 24.0828 26.7414 24.1328 26.7615 24.1792C26.7816 24.2256 26.8111 24.2676 26.8481 24.3022L26.918 24.4121C27.148 24.8121 27.3781 25.2121 27.6281 25.6021C27.6966 25.6959 27.7429 25.8042 27.7637 25.9185C27.7845 26.0328 27.7792 26.1503 27.7481 26.2622C27.659 26.3878 27.5585 26.505 27.448 26.6123L26.1281 27.9321C26.041 28.0202 25.9436 28.0974 25.838 28.1621C25.736 28.1925 25.6285 28.2001 25.5231 28.1846C25.4177 28.169 25.317 28.1309 25.2281 28.0723L24.068 27.3818C23.828 27.1818 23.588 27.042 23.288 27.292L23.0081 27.4321C22.7981 27.5221 22.518 27.5121 22.398 27.7021C22.3053 27.9154 22.2447 28.1411 22.218 28.3721L21.9781 29.3721L21.8581 29.8423C21.8304 29.9755 21.7575 30.095 21.6518 30.1807C21.5461 30.2663 21.414 30.3125 21.278 30.312H19.038C18.9142 30.3126 18.7937 30.2732 18.6945 30.1992C18.5953 30.1253 18.5228 30.0206 18.4881 29.9019C18.4881 29.8219 18.488 29.7519 18.418 29.6719L18.2681 29.062C18.1847 28.7869 18.1212 28.5064 18.078 28.2222C18.0788 28.0322 18.0085 27.8487 17.8808 27.708C17.753 27.5673 17.5773 27.4794 17.3881 27.4619C17.3299 27.4464 17.2731 27.4263 17.218 27.4019C17.088 27.3319 16.948 27.2821 16.828 27.2021C16.7934 27.1719 16.749 27.1553 16.703 27.1553C16.6571 27.1553 16.6127 27.1719 16.578 27.2021L15.1081 28.0723C14.9869 28.1602 14.8368 28.1987 14.6883 28.1802C14.5397 28.1616 14.4038 28.0872 14.308 27.9722L13.7681 27.4521C13.6444 27.3001 13.5071 27.1596 13.3581 27.0322L12.838 26.502C12.7722 26.452 12.7171 26.3895 12.6758 26.3179C12.6346 26.2463 12.6081 26.1674 12.5978 26.0854C12.5876 26.0035 12.5938 25.9199 12.6161 25.8403C12.6385 25.7608 12.6766 25.6867 12.7281 25.6221L13.4881 24.3521C13.5642 24.2879 13.612 24.1963 13.6214 24.0972C13.6307 23.9981 13.6007 23.8995 13.538 23.8223C13.5008 23.7611 13.4674 23.6972 13.438 23.6318C13.348 23.4018 13.258 23.1719 13.178 22.9419C13.1704 22.9087 13.153 22.8786 13.1281 22.8555C13.1031 22.8323 13.0717 22.8172 13.038 22.812L11.818 22.522C11.6187 22.4567 11.4148 22.4067 11.208 22.3721H11.068C10.608 22.2521 10.4881 22.0923 10.4881 21.6123V19.6123C10.4736 19.4619 10.5174 19.3115 10.6104 19.1924C10.7034 19.0733 10.8386 18.9945 10.9881 18.9722L11.548 18.812C11.8568 18.7636 12.1612 18.6903 12.458 18.5923L13.058 18.4619C13.0875 18.4524 13.1141 18.4354 13.1352 18.4126C13.1562 18.3898 13.1709 18.3622 13.178 18.332C13.268 18.092 13.358 17.8523 13.458 17.6123C13.558 17.3723 13.618 17.4122 13.538 17.2822C13.4872 17.1854 13.4305 17.0916 13.3681 17.002C13.2081 16.742 13.058 16.4822 12.908 16.2222C12.7122 15.9322 12.5448 15.6242 12.408 15.3022C12.3989 15.1896 12.4169 15.076 12.4604 14.9717C12.5038 14.8673 12.5716 14.775 12.658 14.7021L14.078 13.2822C14.1492 13.2017 14.237 13.1374 14.3355 13.0942C14.4339 13.0511 14.5405 13.03 14.648 13.0322C14.7946 13.088 14.9354 13.1583 15.068 13.2422L16.338 14.002C16.42 14.0808 16.5294 14.125 16.6431 14.125C16.7568 14.125 16.8661 14.0808 16.948 14.002C16.9979 13.9661 17.0516 13.9361 17.1081 13.9121L17.828 13.6318C17.888 13.6318 17.938 13.6322 17.958 13.5122C17.978 13.3922 18.048 13.1121 18.088 12.9121C18.1813 12.614 18.2548 12.3098 18.308 12.002C18.3606 11.848 18.404 11.6913 18.438 11.5322C18.4572 11.3853 18.5214 11.2478 18.6216 11.1387C18.7218 11.0295 18.8533 10.9536 18.9981 10.9219ZM24.198 20.522C24.205 20.2932 24.1815 20.0648 24.1281 19.8423C24.0081 19.1641 23.6996 18.5331 23.2381 18.022C23.1324 17.873 23.0042 17.7413 22.8581 17.6318C22.3626 17.1684 21.745 16.8562 21.078 16.7319C20.8529 16.672 20.621 16.6419 20.3881 16.6421C19.8451 16.6283 19.3049 16.7255 18.8006 16.9272C18.2962 17.129 17.8383 17.4313 17.4546 17.8159C17.071 18.2005 16.7697 18.6592 16.5691 19.1641C16.3686 19.6689 16.2729 20.209 16.288 20.752C16.2827 20.9819 16.3132 21.2115 16.3781 21.4321C16.5023 22.0991 16.8145 22.7165 17.278 23.2119C17.3872 23.3612 17.5187 23.4929 17.668 23.6021C18.18 24.0604 18.8108 24.3653 19.4881 24.4819C19.7111 24.5338 19.9391 24.5607 20.168 24.562C21.0802 24.5936 21.9727 24.2913 22.678 23.7119C23.1695 23.3412 23.565 22.8583 23.8312 22.3032C24.0974 21.7482 24.2266 21.1373 24.208 20.522H24.198Z" stroke="#F6CF91" stroke-width="0.75" stroke-linecap="round" stroke-linejoin="round"/>
<defs>
<linearGradient id="paint0_linear_9_2034" x1="0.397734" y1="20.6021" x2="40.0778" y2="20.6021" gradientUnits="userSpaceOnUse">
<stop stop-color="white"/>
<stop offset="1" stop-color="#AEB1B5" stop-opacity="0.8"/>
</linearGradient>
</defs>
</svg>
