<svg width="28" height="28" viewBox="0 0 28 28" fill="none" xmlns="http://www.w3.org/2000/svg">
<path opacity="0.2" d="M21.24 0.0454102H6.09999C2.73105 0.0454102 0 2.77645 0 6.14539V20.9054C0 24.2743 2.73105 27.0054 6.09999 27.0054H21.24C24.6089 27.0054 27.34 24.2743 27.34 20.9054V6.14539C27.34 2.77645 24.6089 0.0454102 21.24 0.0454102Z" fill="url(#paint0_linear_1_7146)"/>
<path fill-rule="evenodd" clip-rule="evenodd" d="M9.27981 12.1256C9.54981 11.5456 9.7998 10.9456 10.1298 10.2856C10.3098 9.96564 10.5098 9.68564 10.8798 9.65564H16.4698C16.8398 9.65564 17.0398 9.96564 17.2198 10.2856C17.5498 10.9456 17.7998 11.5456 18.0698 12.1256H9.27981ZM11.9098 14.5156H15.4298C15.481 14.5169 15.5315 14.5283 15.5783 14.5491C15.6251 14.5699 15.6674 14.5997 15.7027 14.6368C15.738 14.674 15.7656 14.7178 15.784 14.7656C15.8024 14.8135 15.8111 14.8644 15.8098 14.9156C15.8073 15.0156 15.7664 15.1108 15.6957 15.1815C15.625 15.2522 15.5298 15.2931 15.4298 15.2957H11.9098C11.8064 15.2957 11.7072 15.2545 11.634 15.1814C11.5609 15.1083 11.5198 15.0091 11.5198 14.9056C11.5198 14.8022 11.5609 14.703 11.634 14.6299C11.7072 14.5567 11.8064 14.5156 11.9098 14.5156ZM10.9098 8.75562C10.3098 8.75562 9.90981 8.97565 9.44981 9.66565L8.61981 11.5457H7.3198C7.1198 11.5457 6.75981 12.5456 8.08981 12.6056L7.63981 13.6857C7.63981 15.0657 7.63981 16.4256 7.63981 17.7856C7.63979 17.9218 7.69319 18.0525 7.78855 18.1498C7.88392 18.247 8.01363 18.303 8.14981 18.3057H9.8798C9.94678 18.3044 10.0128 18.2898 10.0742 18.2629C10.1356 18.2361 10.1911 18.1975 10.2375 18.1492C10.284 18.1009 10.3204 18.044 10.3448 17.9816C10.3693 17.9192 10.3811 17.8526 10.3798 17.7856V16.6256H16.9198V17.7556C16.9198 17.8918 16.9732 18.0226 17.0686 18.1199C17.1639 18.2171 17.2936 18.273 17.4298 18.2756H19.1598C19.2268 18.2743 19.2928 18.2599 19.3542 18.233C19.4156 18.2062 19.4711 18.1674 19.5175 18.1191C19.564 18.0709 19.6004 18.0139 19.6248 17.9515C19.6493 17.8892 19.6611 17.8226 19.6598 17.7556C19.6598 16.3956 19.6598 15.0356 19.6598 13.6556L19.2098 12.5756C20.5598 12.5756 20.2098 11.5156 19.9898 11.5156H18.7298L17.8998 9.63562C17.3998 8.94562 17.0398 8.72559 16.4398 8.72559L10.9098 8.75562ZM17.8498 13.7556C17.6856 13.7556 17.5252 13.8043 17.3887 13.8955C17.2522 13.9867 17.1458 14.1163 17.083 14.2679C17.0202 14.4196 17.0037 14.5866 17.0358 14.7476C17.0678 14.9086 17.1468 15.0564 17.2629 15.1725C17.379 15.2886 17.5269 15.3676 17.6879 15.3997C17.8489 15.4317 18.0158 15.4152 18.1674 15.3524C18.3191 15.2896 18.4487 15.1832 18.5399 15.0468C18.6311 14.9103 18.6798 14.7497 18.6798 14.5856C18.6759 14.4766 18.6506 14.3694 18.6053 14.2701C18.56 14.1709 18.4955 14.0816 18.4156 14.0073C18.3358 13.933 18.242 13.8752 18.1398 13.8372C18.0376 13.7991 17.9288 13.7816 17.8198 13.7856L17.8498 13.7556ZM9.55981 13.7556C9.72397 13.7556 9.88444 13.8043 10.0209 13.8955C10.1574 13.9867 10.2638 14.1163 10.3266 14.2679C10.3894 14.4196 10.4059 14.5866 10.3739 14.7476C10.3418 14.9086 10.2628 15.0564 10.1467 15.1725C10.0306 15.2886 9.88274 15.3676 9.72174 15.3997C9.56073 15.4317 9.39384 15.4152 9.24218 15.3524C9.09052 15.2896 8.96089 15.1832 8.86968 15.0468C8.77848 14.9103 8.72981 14.7497 8.72981 14.5856C8.73726 14.3758 8.82395 14.1766 8.97239 14.0282C9.12083 13.8798 9.32001 13.7931 9.52981 13.7856L9.55981 13.7556Z" fill="#F6CF91"/>
<path d="M5.0498 8.87561V6.51562H7.50981" stroke="#F6CF91" stroke-width="0.72" stroke-linecap="round" stroke-linejoin="round"/>
<path d="M19.9199 6.46533H22.2899V8.92542" stroke="#F6CF91" stroke-width="0.72" stroke-linecap="round" stroke-linejoin="round"/>
<path d="M22.2901 18.1753V20.5453H19.8301" stroke="#F6CF91" stroke-width="0.72" stroke-linecap="round" stroke-linejoin="round"/>
<path d="M7.41982 20.5852H5.0498V18.1353" stroke="#F6CF91" stroke-width="0.72" stroke-linecap="round" stroke-linejoin="round"/>
<defs>
<linearGradient id="paint0_linear_1_7146" x1="0" y1="13.5254" x2="27.34" y2="13.5254" gradientUnits="userSpaceOnUse">
<stop stop-color="white"/>
<stop offset="1" stop-color="#AEB1B5" stop-opacity="0.8"/>
</linearGradient>
</defs>
</svg>
