<svg width="40" height="41" viewBox="0 0 40 41" fill="none" xmlns="http://www.w3.org/2000/svg">
<path opacity="0.2" d="M25.949 40.6297H13.819C12.0099 40.631 10.2182 40.2757 8.54639 39.5843C6.87458 38.8929 5.35541 37.8787 4.07568 36.5999C2.79596 35.3211 1.78083 33.803 1.0882 32.1317C0.395563 30.4603 0.039062 28.6688 0.0390625 26.8597V14.7298C0.0390625 11.0751 1.49082 7.56991 4.07507 4.98565C6.65932 2.4014 10.1643 0.949521 13.819 0.949521H25.949C27.7573 0.944261 29.549 1.29557 31.2216 1.98272C32.8943 2.66988 34.4153 3.67945 35.6976 4.9544C36.98 6.22935 37.9987 7.74474 38.6956 9.41339C39.3924 11.082 39.7538 12.8712 39.759 14.6795V26.8099C39.767 28.6261 39.4153 30.4256 38.7242 32.1053C38.0331 33.7849 37.0163 35.3112 35.7325 36.596C34.4487 37.8808 32.9232 38.8988 31.244 39.5911C29.5649 40.2834 27.7653 40.6363 25.949 40.6297Z" fill="url(#paint0_linear_9_1968)"/>
<path d="M19.2592 29.9397C19.4133 30.0211 19.5849 30.0637 19.7592 30.0637C19.9335 30.0637 20.1051 30.0211 20.2592 29.9397C21.2248 29.4133 22.1596 28.8321 23.0592 28.1995C25.1892 26.7495 27.5392 24.7897 27.5392 21.9797V13.9294C27.5392 13.8754 27.5217 13.8228 27.4892 13.7795C27.4567 13.7363 27.4111 13.7048 27.3592 13.6897L19.7492 11.4094L12.1292 13.6897C12.0773 13.7048 12.0317 13.7363 11.9992 13.7795C11.9668 13.8228 11.9492 13.8754 11.9492 13.9294V21.9797C11.9492 24.7897 14.2992 26.7495 16.4392 28.1995C17.3436 28.8353 18.2853 29.4166 19.2592 29.9397Z" stroke="#F6CF91" stroke-width="0.75" stroke-linecap="round" stroke-linejoin="round"/>
<defs>
<linearGradient id="paint0_linear_9_1968" x1="0.0390625" y1="20.7396" x2="39.719" y2="20.7396" gradientUnits="userSpaceOnUse">
<stop stop-color="white"/>
<stop offset="1" stop-color="#AEB1B5" stop-opacity="0.8"/>
</linearGradient>
</defs>
</svg>
