<svg width="32" height="32" viewBox="0 0 32 32" fill="none" xmlns="http://www.w3.org/2000/svg">
<path opacity="0.4" d="M24.3559 0.776855H7.20587C3.38958 0.776855 0.295898 3.87048 0.295898 7.68677V24.4069C0.295898 28.2231 3.38958 31.3168 7.20587 31.3168H24.3559C28.1722 31.3168 31.2659 28.2231 31.2659 24.4069V7.68677C31.2659 3.87048 28.1722 0.776855 24.3559 0.776855Z" fill="url(#paint0_linear_1_6783)"/>
<path d="M13.5254 16.0372L15.3654 17.7472L18.7354 13.4072" stroke="#F6CF91" stroke-width="0.85" stroke-linecap="round" stroke-linejoin="round"/>
<path d="M15.3658 23.3567C15.4947 23.421 15.6367 23.4545 15.7808 23.4545C15.9248 23.4545 16.0668 23.421 16.1957 23.3567C16.9557 22.9367 17.6958 22.4567 18.4058 21.9667C20.1058 20.8167 21.9658 19.2667 21.9658 17.0367V10.6467C21.9678 10.6026 21.9551 10.559 21.9298 10.5228C21.9045 10.4866 21.8679 10.4599 21.8257 10.4467L15.8257 8.63672L9.82574 10.4467C9.78261 10.4595 9.74478 10.486 9.71777 10.522C9.69077 10.558 9.67605 10.6017 9.67578 10.6467V17.0367C9.67578 19.2667 11.5458 20.8167 13.2358 21.9667C13.8658 22.4567 14.5958 22.9367 15.3658 23.3567Z" stroke="#F6CF91" stroke-width="0.85" stroke-linecap="round" stroke-linejoin="round"/>
<defs>
<linearGradient id="paint0_linear_1_6783" x1="0.295898" y1="16.0468" x2="31.2659" y2="16.0468" gradientUnits="userSpaceOnUse">
<stop stop-color="white"/>
<stop offset="1" stop-color="#AEB1B5" stop-opacity="0.8"/>
</linearGradient>
</defs>
</svg>
