<svg width="40" height="41" viewBox="0 0 40 41" fill="none" xmlns="http://www.w3.org/2000/svg">
<path opacity="0.2" d="M25.88 40.6719H13.78C11.9709 40.6732 10.1793 40.3179 8.50745 39.6265C6.83564 38.935 5.31647 37.9209 4.03674 36.6421C2.75702 35.3633 1.74183 33.8451 1.04919 32.1738C0.356562 30.5025 -4.77062e-07 28.711 0 26.9019V14.772C0 11.1173 1.45188 7.61208 4.03613 5.02783C6.62038 2.44358 10.1253 0.991699 13.78 0.991699H25.91C27.7192 0.991699 29.5106 1.34838 31.1819 2.04102C32.8532 2.73365 34.3716 3.7486 35.6504 5.02832C36.9292 6.30804 37.9433 7.82722 38.6348 9.49902C39.3262 11.1708 39.6814 12.9628 39.6801 14.772V26.9019C39.6814 28.7131 39.3251 30.5065 38.6317 32.1797C37.9383 33.8529 36.9214 35.373 35.6393 36.6523C34.3572 37.9317 32.8351 38.945 31.1604 39.6348C29.4857 40.3245 27.6912 40.6771 25.88 40.6719Z" fill="url(#paint0_linear_9_2021)"/>
<path d="M19.8099 29.9619C24.8799 29.9619 28.9899 25.8517 28.9899 20.7817C28.9899 15.7118 24.8799 11.6021 19.8099 11.6021C14.74 11.6021 10.6299 15.7118 10.6299 20.7817C10.6299 25.8517 14.74 29.9619 19.8099 29.9619Z" stroke="#F6CF91" stroke-width="0.57" stroke-miterlimit="10"/>
<path d="M23.4005 17.9619L19.0906 23.6021L16.2305 20.7817" stroke="#F6CF91" stroke-width="1.14" stroke-linecap="round" stroke-linejoin="round"/>
<defs>
<linearGradient id="paint0_linear_9_2021" x1="-0.03" y1="20.7818" x2="39.6501" y2="20.7818" gradientUnits="userSpaceOnUse">
<stop stop-color="white"/>
<stop offset="1" stop-color="#AEB1B5" stop-opacity="0.8"/>
</linearGradient>
</defs>
</svg>
