<svg width="41" height="40" viewBox="0 0 41 40" fill="none" xmlns="http://www.w3.org/2000/svg">
<path opacity="0.2" d="M26.7355 39.7344H14.6355C12.8264 39.7357 11.0347 39.3804 9.36292 38.689C7.69111 37.9975 6.17193 36.9834 4.89221 35.7046C3.61249 34.4258 2.5973 32.9071 1.90466 31.2358C1.21203 29.5645 0.855468 27.7735 0.855469 25.9644V13.834C0.855469 10.1793 2.30735 6.67458 4.8916 4.09033C7.47585 1.50608 10.9808 0.0541992 14.6355 0.0541992H26.7655C28.5746 0.0541987 30.366 0.410883 32.0374 1.10352C33.7087 1.79615 35.2271 2.8111 36.5059 4.09082C37.7847 5.37054 38.7988 6.88972 39.4902 8.56152C40.1817 10.2333 40.5368 12.0248 40.5355 13.834V25.9644C40.5368 27.773 40.1815 29.5641 39.49 31.2354C38.7985 32.9066 37.7842 34.4252 36.5052 35.7041C35.2263 36.983 33.7079 37.9969 32.0366 38.6885C30.3654 39.38 28.5742 39.7357 26.7655 39.7344" fill="url(#paint0_linear_9_2045)"/>
<path d="M25.5156 10.2441H15.8057C15.4078 10.2441 15.0263 10.4023 14.745 10.6836C14.4637 10.9649 14.3057 11.3463 14.3057 11.7441V28.0142C14.3057 28.412 14.4637 28.7934 14.745 29.0747C15.0263 29.356 15.4078 29.5142 15.8057 29.5142H25.5156C25.9117 29.5115 26.2907 29.3523 26.5698 29.0713C26.849 28.7903 27.0056 28.4103 27.0056 28.0142V11.7441C27.0056 11.348 26.849 10.968 26.5698 10.687C26.2907 10.406 25.9117 10.2468 25.5156 10.2441ZM25.7256 26.354C25.7256 26.6192 25.6203 26.8735 25.4327 27.061C25.2452 27.2486 24.9908 27.354 24.7256 27.354H16.5056C16.2404 27.354 15.986 27.2486 15.7985 27.061C15.6109 26.8735 15.5056 26.6192 15.5056 26.354V12.4341C15.5056 12.1689 15.6109 11.9146 15.7985 11.7271C15.986 11.5395 16.2404 11.4341 16.5056 11.4341H24.7256C24.9908 11.4341 25.2452 11.5395 25.4327 11.7271C25.6203 11.9146 25.7256 12.1689 25.7256 12.4341V26.354Z" fill="#F6CF91"/>
<path d="M22.9253 26.0542H18.3953C18.3422 26.0542 18.2913 26.0753 18.2538 26.1128C18.2163 26.1503 18.1953 26.2009 18.1953 26.2539C18.1953 26.3069 18.2163 26.358 18.2538 26.3955C18.2913 26.433 18.3422 26.4541 18.3953 26.4541H22.9253C22.9516 26.4541 22.9776 26.449 23.0018 26.439C23.0261 26.4289 23.0481 26.4141 23.0667 26.3955C23.0852 26.3769 23.0999 26.3548 23.11 26.3306C23.12 26.3063 23.1252 26.2802 23.1252 26.2539C23.1252 26.2276 23.12 26.202 23.11 26.1777C23.0999 26.1535 23.0852 26.1314 23.0667 26.1128C23.0481 26.0942 23.0261 26.0794 23.0018 26.0693C22.9776 26.0593 22.9516 26.0542 22.9253 26.0542Z" fill="#F6CF91"/>
<defs>
<linearGradient id="paint0_linear_9_2045" x1="0.825469" y1="19.8943" x2="40.5055" y2="19.8943" gradientUnits="userSpaceOnUse">
<stop stop-color="white"/>
<stop offset="1" stop-color="#AEB1B5" stop-opacity="0.8"/>
</linearGradient>
</defs>
</svg>
